<svg width="700" height="700" viewBox="0 0 700 700" fill="none" xmlns="http://www.w3.org/2000/svg">
<g clip-path="url(#clip0_4072_546)">
<path d="M518.226 0H181.774C81.3831 0 0 81.3831 0 181.774V518.226C0 618.617 81.3831 700 181.774 700H518.226C618.617 700 700 618.617 700 518.226V181.774C700 81.3831 618.617 0 518.226 0Z" fill="#FEFEFE"/>
<path d="M292.29 306.103L369.934 261.114C373.158 259.123 376.872 258.069 380.661 258.069C384.449 258.069 388.163 259.123 391.388 261.114L468.01 306.103L471.075 308.148H472.097L562 355.182V287.698C561.866 280.497 559.925 273.445 556.354 267.191C552.783 260.937 547.699 255.683 541.567 251.911L486.399 220.214L480.27 216.125L339.285 134.326C333.04 130.834 326.006 129 318.852 129C311.699 129 304.664 130.834 298.42 134.326L158.456 216.125C151.926 219.524 146.465 224.668 142.678 230.985C138.891 237.302 136.926 244.545 137.002 251.911V413.463C136.926 420.83 138.891 428.073 142.678 434.39C146.465 440.707 151.926 445.851 158.456 449.25L212.603 480.947L218.732 486.059L359.717 566.835C365.861 570.554 372.981 572.335 380.15 571.948C387.319 572.335 394.439 570.554 400.583 566.835L541.567 486.059C547.636 482.22 552.671 476.95 556.233 470.711C559.795 464.472 561.775 457.455 562 450.273V376.654L500.702 344.957L417.95 296.901V377.677C418.05 381.637 417.053 385.548 415.07 388.977C413.087 392.406 410.194 395.218 406.712 397.104L330.09 441.07C326.866 443.061 323.152 444.115 319.363 444.115C315.574 444.115 311.86 443.061 308.636 441.07L288.203 429.823C284.291 425.674 282.099 420.191 282.074 414.486V324.507C281.949 320.801 282.834 317.13 284.633 313.888C286.433 310.646 289.079 307.955 292.29 306.103ZM276.965 444.138L283.095 449.25L359.717 493.217L362.782 495.262L330.09 513.666C326.866 515.657 323.152 516.711 319.363 516.711C315.574 516.711 311.86 515.657 308.636 513.666L224.862 465.61C220.659 461.563 218.11 456.096 217.711 450.273V410.396L221.797 412.441L276.965 444.138ZM380.15 184.428C384.094 184.49 387.958 185.545 391.388 187.495L475.162 235.552C479.228 240.015 481.423 245.873 481.291 251.911V286.676L422.037 256.001L416.929 252.934L339.285 207.945H336.22L369.934 188.518C372.806 186.082 376.392 184.647 380.15 184.428ZM542.589 287.698V323.485L500.702 302.013V251.911L531.351 270.316C534.671 271.858 537.488 274.308 539.476 277.384C541.465 280.46 542.544 284.035 542.589 287.698ZM157.435 413.463V251.911C157.43 248.086 158.359 244.317 160.139 240.931C161.919 237.546 164.498 234.647 167.651 232.484L308.636 151.708C311.688 149.751 315.227 148.688 318.852 148.641C322.816 148.55 326.721 149.616 330.09 151.708L361.761 170.113H359.717L218.732 251.911C212.601 255.683 207.516 260.937 203.946 267.191C200.375 273.445 198.434 280.497 198.3 287.698V450.273L167.651 432.89C164.498 430.728 161.919 427.829 160.139 424.443C158.359 421.058 157.43 417.289 157.435 413.463ZM542.589 388.924V450.273C542.504 454.06 541.42 457.757 539.447 460.99C537.473 464.222 534.68 466.874 531.351 468.677L391.388 549.453C388.163 551.444 384.449 552.498 380.661 552.498C376.872 552.498 373.158 551.444 369.934 549.453L338.263 532.071C338.263 531.8 338.371 531.54 338.562 531.348C338.754 531.156 339.014 531.049 339.285 531.049L480.27 449.25C486.536 445.63 491.73 440.409 495.32 434.121C498.91 427.834 500.767 420.705 500.702 413.463V366.429L542.589 388.924ZM416.929 412.441C423.195 408.82 428.389 403.599 431.979 397.312C435.568 391.024 437.426 383.895 437.361 376.654V329.62L479.248 353.137V413.463C478.978 417.206 477.817 420.829 475.862 424.031C473.907 427.233 471.214 429.92 468.01 431.868L391.388 476.857C388.008 478.35 384.355 479.121 380.661 479.121C376.967 479.121 373.313 478.35 369.934 476.857L338.263 458.452H339.285L416.929 412.441ZM262.663 324.507V413.463L230.992 396.081C227.839 393.919 225.26 391.019 223.48 387.634C221.7 384.249 220.771 380.48 220.776 376.654V288.721C220.771 284.895 221.7 281.126 223.48 277.741C225.26 274.355 227.839 271.456 230.992 269.294L308.636 225.327C311.86 223.336 315.574 222.282 319.363 222.282C323.152 222.282 326.866 223.336 330.09 225.327L361.761 243.731H359.717L283.095 287.698C276.597 291.315 271.239 296.679 267.629 303.184C264.018 309.689 262.297 317.075 262.663 324.507Z" fill="black"/>
</g>
<defs>
<clipPath id="clip0_4072_546">
<rect width="700" height="700" fill="white"/>
</clipPath>
</defs>
</svg>
