<svg xmlns="http://www.w3.org/2000/svg" viewBox="0 0 148 62"><defs><style>.cls-1{fill:#073020;}.cls-2{fill:#c8ff6b;}.cls-3{fill:none;}</style></defs><g id="Layer_2" data-name="Layer 2"><g id="Layer_1-2" data-name="Layer 1"><path class="cls-1" d="M67.4,22.1a8.4,8.4,0,0,1,2.7,2.2V21.5h5V41.3A10.7,10.7,0,0,1,74,46.2a9,9,0,0,1-3.3,3.4,10.3,10.3,0,0,1-5.4,1.3,11.4,11.4,0,0,1-6.8-2,7.5,7.5,0,0,1-3.1-5.3h5a3.2,3.2,0,0,0,1.7,2.1,5.1,5.1,0,0,0,3.1.8,4.8,4.8,0,0,0,3.5-1.3,5,5,0,0,0,1.4-3.9v-3a8.7,8.7,0,0,1-2.7,2.3,7.9,7.9,0,0,1-3.8.9A8.2,8.2,0,0,1,59,40.2a8.7,8.7,0,0,1-3.2-3.6,11.2,11.2,0,0,1-1.2-5.3A11.2,11.2,0,0,1,55.8,26,9.1,9.1,0,0,1,59,22.5a8.2,8.2,0,0,1,4.6-1.3A7.9,7.9,0,0,1,67.4,22.1Zm2,6.2a4.8,4.8,0,0,0-2-2,4.6,4.6,0,0,0-2.6-.7,4.5,4.5,0,0,0-2.5.7,5,5,0,0,0-1.9,1.9,6.2,6.2,0,0,0-.7,3.1,6.2,6.2,0,0,0,.7,3.1,4.6,4.6,0,0,0,1.9,2,4.5,4.5,0,0,0,2.5.7,5.5,5.5,0,0,0,2.6-.6,6.4,6.4,0,0,0,2-2,7.4,7.4,0,0,0,.7-3.1A7.1,7.1,0,0,0,69.4,28.3Z"/><path class="cls-1" d="M84.9,14.9V41.2h-5V14.9Z"/><path class="cls-1" d="M90.1,18.4a2.9,2.9,0,0,1,0-4.2,3.4,3.4,0,0,1,4.4,0,2.8,2.8,0,0,1,.8,2.1,2.8,2.8,0,0,1-.8,2.1,3.4,3.4,0,0,1-4.4,0Zm4.6,3.1V41.2H89.8V21.5Z"/><path class="cls-1" d="M99.6,26a7.8,7.8,0,0,1,3.2-3.5,8.2,8.2,0,0,1,4.6-1.3,7.7,7.7,0,0,1,3.6.9,6.2,6.2,0,0,1,2.8,2.2V14.9h5V41.2h-5V38.3a6.5,6.5,0,0,1-2.6,2.3,8,8,0,0,1-3.9.9,8.1,8.1,0,0,1-4.5-1.3,7.5,7.5,0,0,1-3.2-3.6,11.2,11.2,0,0,1-1.2-5.3A11.2,11.2,0,0,1,99.6,26Zm13.5,2.3a4.6,4.6,0,0,0-1.9-2,4.8,4.8,0,0,0-2.6-.7,4.3,4.3,0,0,0-2.5.7,4.4,4.4,0,0,0-1.9,1.9,6.4,6.4,0,0,0,0,6.2,4.1,4.1,0,0,0,1.9,2,4.5,4.5,0,0,0,2.5.7,5.8,5.8,0,0,0,2.6-.6,6.1,6.1,0,0,0,1.9-2,6.2,6.2,0,0,0,.7-3.1A5.9,5.9,0,0,0,113.1,28.3Z"/><path class="cls-1" d="M141.8,32.9H127.4a5.6,5.6,0,0,0,1.5,3.3,4.8,4.8,0,0,0,3.3,1.2,4.1,4.1,0,0,0,3.9-2.4h5.4a9.2,9.2,0,0,1-3.3,4.7,10.6,10.6,0,0,1-11,.5,8.4,8.4,0,0,1-3.5-3.5,10.4,10.4,0,0,1-1.3-5.3,10.3,10.3,0,0,1,1.3-5.4,8.2,8.2,0,0,1,3.4-3.5,9.8,9.8,0,0,1,5.2-1.3,10.6,10.6,0,0,1,5,1.2,8.6,8.6,0,0,1,3.4,3.4,10.7,10.7,0,0,1,1.3,5.1A12.3,12.3,0,0,1,141.8,32.9Zm-5-3.4a3.6,3.6,0,0,0-1.4-3,4.8,4.8,0,0,0-3.3-1.2,4.9,4.9,0,0,0-3.1,1.1,5.4,5.4,0,0,0-1.5,3.1Z"/><path class="cls-1" d="M103.2,46.4a2.1,2.1,0,0,1,1.2-.3,2.8,2.8,0,0,1,1.3.3,2.2,2.2,0,0,1,.9,1,3.2,3.2,0,0,1,.3,1.4,3.7,3.7,0,0,1-.3,1.5,2.8,2.8,0,0,1-.9,1,2.8,2.8,0,0,1-1.3.3,2.1,2.1,0,0,1-1.2-.3,2,2,0,0,1-.8-.8v3.6h-.9V46.2h.9v.9A1.9,1.9,0,0,1,103.2,46.4Zm2.6,1.4a1.6,1.6,0,0,0-.7-.7,1.5,1.5,0,0,0-1.8,0,1.6,1.6,0,0,0-.7.7,3,3,0,0,0-.2,1,3.6,3.6,0,0,0,.2,1.1,2.3,2.3,0,0,0,.7.7l.9.2.9-.2a2.3,2.3,0,0,0,.7-.7,3.6,3.6,0,0,0,.2-1.1A3,3,0,0,0,105.8,47.8Z"/><path class="cls-1" d="M109.7,46.3a1.6,1.6,0,0,1,1-.2V47h-.2c-1,0-1.5.5-1.5,1.6v2.9h-.9V46.2h.9V47Z"/><path class="cls-1" d="M112.7,51.3a2.8,2.8,0,0,1-.9-1,2.4,2.4,0,0,1-.4-1.5,3.3,3.3,0,0,1,.4-1.4,2.4,2.4,0,0,1,1-1,2.8,2.8,0,0,1,1.3-.3,2.9,2.9,0,0,1,1.4.3,2.4,2.4,0,0,1,1,1,3.3,3.3,0,0,1,.4,1.4,3.3,3.3,0,0,1-.4,1.5,4.7,4.7,0,0,1-1,1,3.4,3.4,0,0,1-2.8,0Zm2.3-.7a1.6,1.6,0,0,0,.7-.7,1.8,1.8,0,0,0,.2-1.1,2,2,0,0,0-.2-1.1,1.3,1.3,0,0,0-.7-.6,1.4,1.4,0,0,0-.9-.3,1.6,1.6,0,0,0-.9.3,1.2,1.2,0,0,0-.6.6,2,2,0,0,0-.3,1.1,1.8,1.8,0,0,0,.3,1.1,1.4,1.4,0,0,0,.6.7,2.1,2.1,0,0,0,1.8,0Z"/><path class="cls-1" d="M119.1,46.9v3.2a.8.8,0,0,0,.2.5.8.8,0,0,0,.6.2h.6v.7h-.8a1.6,1.6,0,0,1-1.1-.3,1.2,1.2,0,0,1-.4-1.1V46.9h-.7v-.7h.7V44.8h.9v1.4h1.4v.7Z"/><path class="cls-1" d="M122.6,51.3a3.2,3.2,0,0,1-1-1,3.3,3.3,0,0,1-.3-1.5,2.5,2.5,0,0,1,1.3-2.4,3.2,3.2,0,0,1,1.4-.3,3.5,3.5,0,0,1,1.4.3,2.2,2.2,0,0,1,.9,1,2.3,2.3,0,0,1,.4,1.4,2.4,2.4,0,0,1-.4,1.5,2.5,2.5,0,0,1-2.4,1.3A2.8,2.8,0,0,1,122.6,51.3Zm2.2-.7a1.6,1.6,0,0,0,.7-.7,1.8,1.8,0,0,0,.3-1.1,2,2,0,0,0-.3-1.1,1.7,1.7,0,0,0-.6-.6,1.6,1.6,0,0,0-.9-.3,1.2,1.2,0,0,0-.9.3,1.3,1.3,0,0,0-.7.6,3.6,3.6,0,0,0-.2,1.1,1.8,1.8,0,0,0,.2,1.1,1.6,1.6,0,0,0,.7.7,1.1,1.1,0,0,0,.8.2C124.3,50.8,124.6,50.8,124.8,50.6Z"/><path class="cls-1" d="M127.9,47.4a2.2,2.2,0,0,1,.9-1,2.8,2.8,0,0,1,1.3-.3,3.1,3.1,0,0,1,1.7.4,2.5,2.5,0,0,1,.8,1.4h-.9a1.6,1.6,0,0,0-.6-.8,1.5,1.5,0,0,0-1-.3,1.7,1.7,0,0,0-1.2.5,2.5,2.5,0,0,0-.5,1.5,2.1,2.1,0,0,0,.5,1.5,1.4,1.4,0,0,0,1.2.6,1.5,1.5,0,0,0,1-.3,1.6,1.6,0,0,0,.6-.8h.9a2.2,2.2,0,0,1-.8,1.3,3.1,3.1,0,0,1-1.7.5,2.8,2.8,0,0,1-1.3-.3,2.8,2.8,0,0,1-.9-1,2.4,2.4,0,0,1-.4-1.5A2.3,2.3,0,0,1,127.9,47.4Z"/><path class="cls-1" d="M134.8,51.3a3.2,3.2,0,0,1-1-1,3.3,3.3,0,0,1-.3-1.5,2.5,2.5,0,0,1,1.3-2.4,3.2,3.2,0,0,1,1.4-.3,3.5,3.5,0,0,1,1.4.3,2.2,2.2,0,0,1,.9,1,2.3,2.3,0,0,1,.4,1.4,2.4,2.4,0,0,1-.4,1.5,2.5,2.5,0,0,1-2.4,1.3A2.8,2.8,0,0,1,134.8,51.3Zm2.2-.7a1.6,1.6,0,0,0,.7-.7,1.8,1.8,0,0,0,.3-1.1,2,2,0,0,0-.3-1.1,1.2,1.2,0,0,0-.6-.6,1.6,1.6,0,0,0-.9-.3,1.2,1.2,0,0,0-.9.3,1.3,1.3,0,0,0-.7.6,3.6,3.6,0,0,0-.2,1.1,3.1,3.1,0,0,0,.2,1.1,1.6,1.6,0,0,0,.7.7,1.1,1.1,0,0,0,.8.2C136.5,50.8,136.8,50.8,137,50.6Z"/><path class="cls-1" d="M141,44.3v7.2h-.9V44.3Z"/><path class="cls-2" d="M21.2,25.2l7.5-4.4a2.8,2.8,0,0,1,2.2,0l7.5,4.4.3.2h.1L47.6,30V23.4a4.3,4.3,0,0,0-2-3.5l-5.4-3.1-.6-.4L25.8,8.5a4.1,4.1,0,0,0-4,0L8.1,16.4A4,4,0,0,0,6,19.9V35.8a4.2,4.2,0,0,0,2.1,3.5l5.3,3.1.6.4,13.8,7.9a3.6,3.6,0,0,0,4,0l13.8-7.9a4.2,4.2,0,0,0,2-3.5V32.2l-6-3.2h0l-8.1-4.6v7.9A2.1,2.1,0,0,1,32.4,34l-7.5,4.4a2.6,2.6,0,0,1-2.1,0l-2-1.2a2,2,0,0,1-.6-1.5V27A2.2,2.2,0,0,1,21.2,25.2ZM19.7,38.8l.6.4,7.5,4.3.3.2-3.2,1.9a2.6,2.6,0,0,1-2.1,0l-8.2-4.8a2.1,2.1,0,0,1-.7-1.5V35.4l.4.3ZM29.8,13.4a2.3,2.3,0,0,1,1.1.3l8.2,4.7a2,2,0,0,1,.6,1.5v3.5l-5.8-3-.5-.4-7.6-4.3-.3-.2,3.2-1.8A2.3,2.3,0,0,1,29.8,13.4Zm15.9,10v3.5l-4.1-2.1V19.9h0l3,1.7A2.1,2.1,0,0,1,45.7,23.4ZM8,35.8V19.9a2,2,0,0,1,1-1.8l13.8-8a1.9,1.9,0,0,1,1-.3,2,2,0,0,1,1.1.3L28,11.9h-.2L14,19.9a4.3,4.3,0,0,0-2,3.5V39.3h0L9,37.6A2.2,2.2,0,0,1,8,35.8Zm37.7-2.5v6a1.9,1.9,0,0,1-1.1,1.8l-13.7,8a2.2,2.2,0,0,1-2.2,0l-3-1.8h.1l13.8-7.9a4.3,4.3,0,0,0,2-3.5V31.1ZM33.4,35.7a4.3,4.3,0,0,0,2-3.5V27.5l4.1,2.4v5.8a2.4,2.4,0,0,1-1.1,1.9l-7.5,4.3a2.2,2.2,0,0,1-2.2,0l-3-1.8h.1ZM18.3,27v8.7h0L15.2,34a2.2,2.2,0,0,1-1-1.8V23.5a2,2,0,0,1,1-1.8l7.6-4.4a2,2,0,0,1,2.1,0L28,19.1h-.2l-7.5,4.3A4.1,4.1,0,0,0,18.3,27Z"/><rect class="cls-3" width="148" height="62"/></g></g></svg>