<svg xmlns="http://www.w3.org/2000/svg" viewBox="0 0 87.4 90.1"><defs><style>.cls-1{fill:#073020;}.cls-2{fill:#c8ff6b;}</style></defs><g id="Layer_2" data-name="Layer 2"><g id="Layer_1-2" data-name="Layer 1"><path class="cls-1" d="M12.8,58.2a7.3,7.3,0,0,1,2.7,2.2V57.6h5V77.4a11.4,11.4,0,0,1-1.1,4.9,9.8,9.8,0,0,1-3.3,3.4,11.3,11.3,0,0,1-5.4,1.2A11.4,11.4,0,0,1,3.9,85a7.1,7.1,0,0,1-3-5.3H5.8a3.2,3.2,0,0,0,1.7,2.1,5.9,5.9,0,0,0,3.1.8,4.8,4.8,0,0,0,3.5-1.3,5.1,5.1,0,0,0,1.4-3.9V74.3a9,9,0,0,1-2.7,2.4,7.9,7.9,0,0,1-3.8.9,8.2,8.2,0,0,1-4.6-1.3,10.2,10.2,0,0,1-3.2-3.6,12.3,12.3,0,0,1,0-10.6,9.4,9.4,0,0,1,3.2-3.6A9,9,0,0,1,9,57.3,7.9,7.9,0,0,1,12.8,58.2Zm2,6.1a6.4,6.4,0,0,0-2-2,5.5,5.5,0,0,0-2.6-.6,5.4,5.4,0,0,0-2.5.6,5.2,5.2,0,0,0-1.9,2,6.2,6.2,0,0,0-.7,3.1,6.4,6.4,0,0,0,.7,3.1,5.2,5.2,0,0,0,1.9,2,4.7,4.7,0,0,0,2.5.7,4.6,4.6,0,0,0,2.6-.7,4.8,4.8,0,0,0,2-2,7.1,7.1,0,0,0,.7-3.1A7.4,7.4,0,0,0,14.8,64.3Z"/><path class="cls-1" d="M30.3,51V77.3h-5V51Z"/><path class="cls-1" d="M35.5,54.4a2.5,2.5,0,0,1-.9-2,2.6,2.6,0,0,1,.9-2.1,2.9,2.9,0,0,1,2.2-.8,2.9,2.9,0,0,1,2.2.8,2.6,2.6,0,0,1,.9,2.1,2.5,2.5,0,0,1-.9,2,3.1,3.1,0,0,1-4.4,0Zm4.6,3.2V77.3H35.2V57.6Z"/><path class="cls-1" d="M45,62.1a8,8,0,0,1,3.2-3.6,9,9,0,0,1,8.2-.4,7.8,7.8,0,0,1,2.8,2.2V51h5V77.3h-5v-3a6.7,6.7,0,0,1-2.6,2.4,8,8,0,0,1-3.9.9,8.1,8.1,0,0,1-4.5-1.3A8.6,8.6,0,0,1,45,72.7a12.3,12.3,0,0,1,0-10.6Zm13.5,2.2a6.1,6.1,0,0,0-1.9-2,5.8,5.8,0,0,0-2.6-.6,5.1,5.1,0,0,0-2.5.6,4.6,4.6,0,0,0-1.9,2,6.2,6.2,0,0,0-.8,3.1,6.5,6.5,0,0,0,.8,3.1,4.6,4.6,0,0,0,1.9,2,4.5,4.5,0,0,0,2.5.7,4.8,4.8,0,0,0,2.6-.7,4.6,4.6,0,0,0,1.9-2,5.9,5.9,0,0,0,.7-3.1A6.2,6.2,0,0,0,58.5,64.3Z"/><path class="cls-1" d="M87.2,68.9H72.8a5.9,5.9,0,0,0,1.5,3.4,4.8,4.8,0,0,0,3.3,1.2,4.1,4.1,0,0,0,3.9-2.4h5.4a9,9,0,0,1-3.3,4.6,9.1,9.1,0,0,1-5.9,1.9,9.7,9.7,0,0,1-5.1-1.3,8.4,8.4,0,0,1-3.5-3.5,10.8,10.8,0,0,1-1.3-5.4,10.2,10.2,0,0,1,1.3-5.3,8.4,8.4,0,0,1,3.4-3.6,10.8,10.8,0,0,1,5.2-1.2,10.6,10.6,0,0,1,5,1.2,8,8,0,0,1,3.4,3.4A10.7,10.7,0,0,1,87.4,67,10.1,10.1,0,0,1,87.2,68.9Zm-5-3.3a4,4,0,0,0-1.4-3.1,5.2,5.2,0,0,0-3.3-1.1,4.4,4.4,0,0,0-3.1,1.1,5.1,5.1,0,0,0-1.5,3.1Z"/><path class="cls-1" d="M48.6,82.4a2.1,2.1,0,0,1,1.2-.3,2.8,2.8,0,0,1,1.3.4,2,2,0,0,1,.9.9,3.7,3.7,0,0,1,.3,1.5,3.2,3.2,0,0,1-.3,1.4,1.8,1.8,0,0,1-.9,1,2,2,0,0,1-1.3.4,2.1,2.1,0,0,1-1.2-.3,2,2,0,0,1-.8-.8v3.5h-.9V82.2h.9v1Zm2.6,1.4-.7-.7-.9-.2a1.6,1.6,0,0,0-.9.3,1.3,1.3,0,0,0-.7.6A3.1,3.1,0,0,0,48,86l.7.7.9.2.9-.2.7-.7a3.1,3.1,0,0,0,0-2.2Z"/><path class="cls-1" d="M55.1,82.4a1.7,1.7,0,0,1,1-.3V83h-.2c-1,0-1.5.6-1.5,1.7v2.9h-.9V82.2h.9v.9A2.3,2.3,0,0,1,55.1,82.4Z"/><path class="cls-1" d="M58.1,87.3a2,2,0,0,1-.9-.9,2.6,2.6,0,0,1-.4-1.5,3.7,3.7,0,0,1,.4-1.5,2.2,2.2,0,0,1,1-.9,2.8,2.8,0,0,1,1.3-.4,2.9,2.9,0,0,1,1.4.4,2.2,2.2,0,0,1,1,.9,3,3,0,0,1,0,3,2.8,2.8,0,0,1-1,.9,2.6,2.6,0,0,1-2.8,0Zm2.3-.6.7-.7a3.1,3.1,0,0,0,0-2.2,2.3,2.3,0,0,0-.7-.7l-.9-.2-.9.2-.6.7A2.2,2.2,0,0,0,58,86c.1.3.4.5.6.7l.9.2Z"/><path class="cls-1" d="M64.5,83v3.1a.8.8,0,0,0,.2.6h1.2v.8h-.8a1.2,1.2,0,0,1-1.1-.4,1.6,1.6,0,0,1-.4-1.1V83h-.7v-.8h.7V80.9h.9v1.3h1.4V83Z"/><path class="cls-1" d="M68,87.3a2.2,2.2,0,0,1-1-.9,3.9,3.9,0,0,1,0-3,2.8,2.8,0,0,1,1-.9,3.3,3.3,0,0,1,1.4-.4,3.7,3.7,0,0,1,1.4.4,2,2,0,0,1,.9.9,3,3,0,0,1,0,3,2.2,2.2,0,0,1-1,.9,2.3,2.3,0,0,1-1.4.4A2,2,0,0,1,68,87.3Zm2.2-.6.7-.7a2.2,2.2,0,0,0,0-2.2l-.6-.7-.9-.2-.9.2-.7.7a3.1,3.1,0,0,0,0,2.2l.7.7.8.2Z"/><path class="cls-1" d="M73.3,83.4a2,2,0,0,1,.9-.9,2.8,2.8,0,0,1,1.3-.4,3.1,3.1,0,0,1,1.7.5,2.2,2.2,0,0,1,.8,1.3h-.9a1.3,1.3,0,0,0-.6-.7,1.5,1.5,0,0,0-1-.3,1.7,1.7,0,0,0-1.2.5,2.5,2.5,0,0,0,0,3,1.7,1.7,0,0,0,1.2.5l1-.2a1.6,1.6,0,0,0,.6-.8H78a2.2,2.2,0,0,1-.8,1.3,3.1,3.1,0,0,1-1.7.5,2,2,0,0,1-1.3-.4,2,2,0,0,1-.9-.9,3,3,0,0,1,0-3Z"/><path class="cls-1" d="M80.2,87.3a2.2,2.2,0,0,1-1-.9,3.9,3.9,0,0,1,0-3,2.8,2.8,0,0,1,1-.9,3.3,3.3,0,0,1,1.4-.4,3.7,3.7,0,0,1,1.4.4,2,2,0,0,1,.9.9,3,3,0,0,1,0,3,2.2,2.2,0,0,1-1,.9,2.3,2.3,0,0,1-1.4.4A2,2,0,0,1,80.2,87.3Zm2.2-.6a2.3,2.3,0,0,0,.7-.7,2.2,2.2,0,0,0,0-2.2c-.1-.3-.4-.5-.6-.7l-.9-.2-.9.2-.7.7A3.1,3.1,0,0,0,80,86l.7.7.8.2Z"/><path class="cls-1" d="M86.4,80.3v7.3h-.9V80.3Z"/><path class="cls-2" d="M38.1,17.3l7.5-4.4a2,2,0,0,1,2.1,0l7.6,4.4.3.2h0l8.8,4.5V15.5a3.9,3.9,0,0,0-2-3.5L57.1,8.9l-.6-.4L42.7.5a4.1,4.1,0,0,0-4,0l-13.8,8a4,4,0,0,0-2,3.5V27.8a4,4,0,0,0,2,3.5l5.4,3.1.6.5,13.8,7.9a4.2,4.2,0,0,0,4,0l13.7-7.9a4.1,4.1,0,0,0,2-3.5V24.2l-5.9-3.1h0l-8.2-4.7v7.9a2.3,2.3,0,0,1-1,1.9l-7.6,4.3a2,2,0,0,1-2.1,0l-1.9-1.1a2.1,2.1,0,0,1-.7-1.5V19.1A1.9,1.9,0,0,1,38.1,17.3ZM36.5,30.8l.6.5,7.6,4.3.3.2-3.3,1.8a2,2,0,0,1-2.1,0l-8.2-4.7a2,2,0,0,1-.6-1.5V27.5l.3.2ZM46.7,5.4a1.9,1.9,0,0,1,1,.3l8.2,4.8a2,2,0,0,1,.7,1.5v3.4l-5.9-3-.5-.3L42.7,7.7h-.3l3.2-1.9A2,2,0,0,1,46.7,5.4ZM62.5,15.5V19l-4-2.1V12h0l3,1.8A2,2,0,0,1,62.5,15.5ZM24.8,27.8V12a2.1,2.1,0,0,1,1.1-1.9L39.6,2.2a2.3,2.3,0,0,1,1.1-.3,1.7,1.7,0,0,1,1,.3L44.8,4h-.1L30.9,12a4.2,4.2,0,0,0-2,3.5V31.4h0l-3-1.7A2.1,2.1,0,0,1,24.8,27.8Zm37.7-2.4v6a2.2,2.2,0,0,1-1,1.8l-13.8,8a2.6,2.6,0,0,1-2.1,0l-3.1-1.8h.2l13.8-8a4,4,0,0,0,2-3.5V23.2ZM50.2,27.7a3.8,3.8,0,0,0,2-3.5V19.6l4.1,2.3v5.9a2.2,2.2,0,0,1-1,1.8L47.7,34a2.6,2.6,0,0,1-2.1,0l-3.1-1.8h.2ZM35.1,19.1v8.7h0l-3-1.7A2.1,2.1,0,0,1,31,24.2V15.6a2.1,2.1,0,0,1,1.1-1.9l7.5-4.3a2,2,0,0,1,2.1,0l3.1,1.8a.1.1,0,0,0-.1.1l-7.6,4.3A4.2,4.2,0,0,0,35.1,19.1Z"/></g></g></svg>