<svg xmlns="http://www.w3.org/2000/svg" viewBox="0 0 87.4 40.7"><defs><style>.cls-1{fill:#073020;}</style></defs><g id="Layer_2" data-name="Layer 2"><g id="Layer_1-2" data-name="Layer 1"><path class="cls-1" d="M12.8,8.7A7.5,7.5,0,0,1,15.5,11V8.2h5V27.9a10.7,10.7,0,0,1-1.1,4.9,8.3,8.3,0,0,1-3.3,3.4,10.3,10.3,0,0,1-5.4,1.3,11.4,11.4,0,0,1-6.8-2,6.9,6.9,0,0,1-3-5.3H5.8a3.6,3.6,0,0,0,1.7,2.2,5.9,5.9,0,0,0,3.1.8,5.2,5.2,0,0,0,3.5-1.3,5.4,5.4,0,0,0,1.4-4v-3a8.7,8.7,0,0,1-2.7,2.3,7.9,7.9,0,0,1-3.8.9,8.2,8.2,0,0,1-4.6-1.3,8.7,8.7,0,0,1-3.2-3.6A11.2,11.2,0,0,1,0,17.9a11.5,11.5,0,0,1,1.2-5.3A9.1,9.1,0,0,1,4.4,9.1,9.1,9.1,0,0,1,9,7.8,7.9,7.9,0,0,1,12.8,8.7Zm2,6.2a5.5,5.5,0,0,0-2-2,4.6,4.6,0,0,0-2.6-.7,4.5,4.5,0,0,0-2.5.7,5,5,0,0,0-1.9,1.9,6.2,6.2,0,0,0-.7,3.1A6.2,6.2,0,0,0,5.8,21a5.5,5.5,0,0,0,1.9,2.1,5.9,5.9,0,0,0,2.5.7,5.6,5.6,0,0,0,2.6-.7,6.4,6.4,0,0,0,2-2,7.4,7.4,0,0,0,.7-3.1A7.1,7.1,0,0,0,14.8,14.9Z"/><path class="cls-1" d="M30.3,1.6V27.8h-5V1.6Z"/><path class="cls-1" d="M35.5,5a2.9,2.9,0,0,1,0-4.2,3.4,3.4,0,0,1,4.4,0,2.9,2.9,0,0,1,0,4.2,3.4,3.4,0,0,1-4.4,0Zm4.6,3.2V27.8H35.2V8.2Z"/><path class="cls-1" d="M45,12.6a7.8,7.8,0,0,1,3.2-3.5,9.1,9.1,0,0,1,4.6-1.3,7.7,7.7,0,0,1,3.6.9,6.9,6.9,0,0,1,2.8,2.2V1.6h5V27.8h-5V24.9a6.5,6.5,0,0,1-2.6,2.3,8,8,0,0,1-3.9.9,8.1,8.1,0,0,1-4.5-1.3A7.5,7.5,0,0,1,45,23.2a11.2,11.2,0,0,1-1.2-5.3A11.5,11.5,0,0,1,45,12.6Zm13.5,2.3a5.2,5.2,0,0,0-1.9-2,4.8,4.8,0,0,0-2.6-.7,4.3,4.3,0,0,0-2.5.7,4.4,4.4,0,0,0-1.9,1.9,6.4,6.4,0,0,0,0,6.2,4.8,4.8,0,0,0,1.9,2.1,5.5,5.5,0,0,0,2.5.7,5.9,5.9,0,0,0,2.6-.7,6.1,6.1,0,0,0,1.9-2,6.2,6.2,0,0,0,.7-3.1A5.9,5.9,0,0,0,58.5,14.9Z"/><path class="cls-1" d="M87.2,19.5H72.8a5.6,5.6,0,0,0,1.5,3.3A4.8,4.8,0,0,0,77.6,24a4.1,4.1,0,0,0,3.9-2.4h5.4a9.2,9.2,0,0,1-3.3,4.7,9.6,9.6,0,0,1-5.9,1.8,10.7,10.7,0,0,1-5.1-1.2,9.3,9.3,0,0,1-3.5-3.6A10.2,10.2,0,0,1,67.8,18a10.5,10.5,0,0,1,1.3-5.4,8.2,8.2,0,0,1,3.4-3.5,10.8,10.8,0,0,1,5.2-1.3,10.6,10.6,0,0,1,5,1.2,8.2,8.2,0,0,1,3.4,3.5,10.1,10.1,0,0,1,1.3,5.1A11.1,11.1,0,0,1,87.2,19.5Zm-5-3.4a3.7,3.7,0,0,0-1.4-3,4.8,4.8,0,0,0-3.3-1.2A4.9,4.9,0,0,0,74.4,13a5.4,5.4,0,0,0-1.5,3.1Z"/><path class="cls-1" d="M48.6,33a2.1,2.1,0,0,1,1.2-.3,2.8,2.8,0,0,1,1.3.3,2.8,2.8,0,0,1,.9,1,3.2,3.2,0,0,1,.3,1.4,3.3,3.3,0,0,1-.3,1.5,2.8,2.8,0,0,1-.9,1,2.8,2.8,0,0,1-1.3.3,2.1,2.1,0,0,1-1.2-.3,1.6,1.6,0,0,1-.8-.8v3.6h-.9V32.8h.9v1A2,2,0,0,1,48.6,33Zm2.6,1.4a2.3,2.3,0,0,0-.7-.7,2.1,2.1,0,0,0-1.8,0,2.3,2.3,0,0,0-.7.7,3,3,0,0,0-.2,1,3.1,3.1,0,0,0,.2,1.1,2.3,2.3,0,0,0,.7.7,2.1,2.1,0,0,0,1.8,0l.7-.7a3.6,3.6,0,0,0,.2-1.1A3,3,0,0,0,51.2,34.4Z"/><path class="cls-1" d="M55.1,32.9l1-.2v.9h-.2c-1,0-1.5.5-1.5,1.6v2.9h-.9V32.8h.9v.8A2.3,2.3,0,0,1,55.1,32.9Z"/><path class="cls-1" d="M58.1,37.9a2.2,2.2,0,0,1-.9-1,2.4,2.4,0,0,1-.4-1.5,3.3,3.3,0,0,1,.4-1.4,2.4,2.4,0,0,1,1-1,2.8,2.8,0,0,1,1.3-.3,2.9,2.9,0,0,1,1.4.3,2.4,2.4,0,0,1,1,1,3.3,3.3,0,0,1,.4,1.4,3.3,3.3,0,0,1-.4,1.5,3,3,0,0,1-3.8,1Zm2.3-.7a1.6,1.6,0,0,0,.7-.7,1.8,1.8,0,0,0,.2-1.1,1.6,1.6,0,0,0-.2-1,1.6,1.6,0,0,0-.7-.7c-.2-.2-.5-.2-.9-.2a1.5,1.5,0,0,0-.9.2,2.2,2.2,0,0,0-.6.7,1.7,1.7,0,0,0-.3,1,2.1,2.1,0,0,0,.3,1.2,1.2,1.2,0,0,0,.6.6,2.1,2.1,0,0,0,1.8,0Z"/><path class="cls-1" d="M64.5,33.5v3.2a.8.8,0,0,0,.2.5.8.8,0,0,0,.6.2h.6v.7h-.8a1.3,1.3,0,0,1-1.5-1.4V33.5h-.7v-.7h.7V31.4h.9v1.4h1.4v.7Z"/><path class="cls-1" d="M68,37.9a2.4,2.4,0,0,1-1-1,3.3,3.3,0,0,1-.3-1.5A2.5,2.5,0,0,1,68,33a3.2,3.2,0,0,1,1.4-.3,3.5,3.5,0,0,1,1.4.3,2.2,2.2,0,0,1,.9,1,2.3,2.3,0,0,1,.4,1.4,2.9,2.9,0,0,1-1.4,2.5,3.2,3.2,0,0,1-1.4.3A2.8,2.8,0,0,1,68,37.9Zm2.2-.7a1.6,1.6,0,0,0,.7-.7,1.8,1.8,0,0,0,.3-1.1,1.7,1.7,0,0,0-.3-1,2.2,2.2,0,0,0-.6-.7,1.5,1.5,0,0,0-.9-.2c-.4,0-.7,0-.9.2a1.6,1.6,0,0,0-.7.7,3,3,0,0,0-.2,1,3.7,3.7,0,0,0,.2,1.2,1.3,1.3,0,0,0,.7.6,1.1,1.1,0,0,0,.8.2C69.7,37.4,70,37.4,70.2,37.2Z"/><path class="cls-1" d="M73.3,34a2.8,2.8,0,0,1,.9-1,2.8,2.8,0,0,1,1.3-.3,2.5,2.5,0,0,1,1.7.5,2,2,0,0,1,.8,1.3h-.9a1.6,1.6,0,0,0-.6-.8,1.5,1.5,0,0,0-1-.3,1.4,1.4,0,0,0-1.2.6,2,2,0,0,0-.5,1.4,2.1,2.1,0,0,0,.5,1.5,1.4,1.4,0,0,0,1.2.6,1.5,1.5,0,0,0,1-.3,1.2,1.2,0,0,0,.6-.8H78a2,2,0,0,1-.8,1.3,2.5,2.5,0,0,1-1.7.5,2.8,2.8,0,0,1-1.3-.3,2.2,2.2,0,0,1-.9-1,2.4,2.4,0,0,1-.4-1.5A2.3,2.3,0,0,1,73.3,34Z"/><path class="cls-1" d="M80.2,37.9a2.4,2.4,0,0,1-1-1,3.3,3.3,0,0,1-.3-1.5A2.5,2.5,0,0,1,80.2,33a3.2,3.2,0,0,1,1.4-.3A3.5,3.5,0,0,1,83,33a2.2,2.2,0,0,1,.9,1,2.3,2.3,0,0,1,.4,1.4,2.9,2.9,0,0,1-1.4,2.5,3.2,3.2,0,0,1-1.4.3A2.8,2.8,0,0,1,80.2,37.9Zm2.2-.7a1.6,1.6,0,0,0,.7-.7,1.8,1.8,0,0,0,.3-1.1,1.7,1.7,0,0,0-.3-1,1.4,1.4,0,0,0-.6-.7,1.5,1.5,0,0,0-.9-.2c-.4,0-.7,0-.9.2a1.6,1.6,0,0,0-.7.7,3,3,0,0,0-.2,1,3.7,3.7,0,0,0,.2,1.2,1.3,1.3,0,0,0,.7.6,1.1,1.1,0,0,0,.8.2C81.9,37.4,82.2,37.4,82.4,37.2Z"/><path class="cls-1" d="M86.4,30.9v7.2h-.9V30.9Z"/></g></g></svg>