<svg xmlns="http://www.w3.org/2000/svg" viewBox="0 0 148 62"><defs><style>.cls-1{fill:#073020;}.cls-2{fill:#c8ff6b;}.cls-3{fill:none;}</style></defs><g id="Layer_2" data-name="Layer 2"><g id="Layer_1-2" data-name="Layer 1"><path class="cls-1" d="M73.7,23.5a8.4,8.4,0,0,1,2.7,2.2V22.9h5V42.7a11,11,0,0,1-1.1,4.9A9,9,0,0,1,77,51a11.3,11.3,0,0,1-5.4,1.3,11.2,11.2,0,0,1-6.8-2A7.5,7.5,0,0,1,61.7,45h5a3.2,3.2,0,0,0,1.7,2.1,5.1,5.1,0,0,0,3.1.8A4.8,4.8,0,0,0,75,46.6a5,5,0,0,0,1.4-3.9v-3A8.7,8.7,0,0,1,73.7,42a7.9,7.9,0,0,1-3.8.9,8.2,8.2,0,0,1-4.6-1.3A8.7,8.7,0,0,1,62.1,38a11.2,11.2,0,0,1-1.2-5.3,11.2,11.2,0,0,1,1.2-5.3,8.4,8.4,0,0,1,3.2-3.5,8.2,8.2,0,0,1,4.6-1.3A7.9,7.9,0,0,1,73.7,23.5Zm1.9,6.2a4.1,4.1,0,0,0-1.9-2,4.6,4.6,0,0,0-2.6-.7,4.5,4.5,0,0,0-2.5.7,5,5,0,0,0-1.9,1.9,6.2,6.2,0,0,0-.7,3.1,6.2,6.2,0,0,0,.7,3.1,4.6,4.6,0,0,0,1.9,2,4.5,4.5,0,0,0,2.5.7,4.6,4.6,0,0,0,2.6-.7,4.4,4.4,0,0,0,1.9-1.9,6.2,6.2,0,0,0,.8-3.1A5.9,5.9,0,0,0,75.6,29.7Z"/><path class="cls-1" d="M91.2,16.3V42.6h-5V16.3Z"/><path class="cls-1" d="M106.9,42.6l-4-6.1-3.6,6.1H94l6.4-9.9-6.5-9.8h5.6l4,6.1,3.6-6.1h5.4L106,32.7l6.5,9.9Z"/><path class="cls-1" d="M122.8,23.5a8.3,8.3,0,0,1,3.9-.9,7.7,7.7,0,0,1,4.5,1.3,8.6,8.6,0,0,1,3.3,3.5,11.2,11.2,0,0,1,1.2,5.3,11.2,11.2,0,0,1-1.2,5.3,8.3,8.3,0,0,1-3.3,3.6,8.5,8.5,0,0,1-8.3.4,8.4,8.4,0,0,1-2.7-2.2V51.9h-5v-29h5v2.9A7.3,7.3,0,0,1,122.8,23.5Zm7.1,6.1a5.2,5.2,0,0,0-2-1.9,4.5,4.5,0,0,0-2.5-.7,4.8,4.8,0,0,0-2.6.7,4.6,4.6,0,0,0-1.9,2,5.9,5.9,0,0,0-.7,3.1,5.8,5.8,0,0,0,.7,3,4.6,4.6,0,0,0,1.9,2,4.8,4.8,0,0,0,2.6.7,4.5,4.5,0,0,0,2.5-.7,4.8,4.8,0,0,0,2-2,7.2,7.2,0,0,0,0-6.2Z"/><path class="cls-2" d="M27.5,26.6,35,22.2a2.8,2.8,0,0,1,2.2,0l7.5,4.4.3.2h.1l8.8,4.5V24.8a4.3,4.3,0,0,0-2-3.5l-5.4-3.1-.6-.4L32.1,9.9a3.6,3.6,0,0,0-4,0L14.4,17.8a4,4,0,0,0-2.1,3.5V37.2a4.2,4.2,0,0,0,2.1,3.5l5.3,3.1.6.4,13.8,7.9a3.6,3.6,0,0,0,4,0l13.8-7.9a4.2,4.2,0,0,0,2-3.5V33.5l-6-3.1h0l-8.1-4.6v7.9a2.1,2.1,0,0,1-1.1,1.8l-7.5,4.4a2.6,2.6,0,0,1-2.1,0l-2-1.2a2,2,0,0,1-.6-1.5V28.4A2.2,2.2,0,0,1,27.5,26.6ZM26,40.2l.6.4,7.5,4.3.3.2L31.2,47a2.6,2.6,0,0,1-2.1,0l-8.2-4.8a2.1,2.1,0,0,1-.7-1.5V36.8l.4.3ZM36.1,14.8l1.1.2,8.2,4.8a2,2,0,0,1,.6,1.5v3.5l-5.8-3-.5-.4-7.6-4.3-.3-.2L35,15ZM52,24.8v3.5l-4.1-2.1V21.3h0l3,1.8A2.1,2.1,0,0,1,52,24.8ZM14.2,37.2V21.3a2.1,2.1,0,0,1,1.1-1.8l13.8-8a1.9,1.9,0,0,1,1-.3,2,2,0,0,1,1.1.3l3.1,1.8h-.2L20.3,21.3a4.3,4.3,0,0,0-2,3.5V40.7h0l-3-1.8A2.3,2.3,0,0,1,14.2,37.2ZM52,34.7v6a1.9,1.9,0,0,1-1.1,1.8l-13.7,8a2.2,2.2,0,0,1-2.2,0l-3.1-1.8h.2l13.8-7.9a4.3,4.3,0,0,0,2-3.5V32.5ZM39.7,37.1a4.3,4.3,0,0,0,2-3.5V28.9l4.1,2.4v5.8a2.1,2.1,0,0,1-1.1,1.8l-7.5,4.4a2.2,2.2,0,0,1-2.2,0l-3.1-1.8h.2ZM24.6,28.4v8.7h0l-3.1-1.8a2.2,2.2,0,0,1-1-1.8V24.9a2,2,0,0,1,1-1.8l7.6-4.4a2,2,0,0,1,2.1,0l3.1,1.8h-.2l-7.5,4.3A4.1,4.1,0,0,0,24.6,28.4Z"/><rect class="cls-3" width="148" height="62"/></g></g></svg>