<svg xmlns="http://www.w3.org/2000/svg" viewBox="0 0 103 103"><defs><style>.cls-1{fill:#073020;}.cls-2{fill:#c8ff6b;}.cls-3{fill:none;}</style></defs><g id="Layer_2" data-name="Layer 2"><g id="Layer_1-2" data-name="Layer 1"><path class="cls-1" d="M27,65.4a8.3,8.3,0,0,1,2.6,2.3V64.9h5V84.7a10.6,10.6,0,0,1-1.1,4.8,7.2,7.2,0,0,1-3.3,3.4,10.2,10.2,0,0,1-5.3,1.3A11.5,11.5,0,0,1,18,92.3a7.1,7.1,0,0,1-3-5.4h4.9a4,4,0,0,0,1.7,2.2,5.9,5.9,0,0,0,3.1.8,5,5,0,0,0,3.5-1.3,5.3,5.3,0,0,0,1.4-3.9V81.6a7.7,7.7,0,0,1-2.7,2.3,7.9,7.9,0,0,1-3.8.9,8.4,8.4,0,0,1-4.5-1.2A9.5,9.5,0,0,1,15.3,80a11.9,11.9,0,0,1-1.2-5.4,11.5,11.5,0,0,1,1.2-5.3,9.1,9.1,0,0,1,3.2-3.5,9,9,0,0,1,4.6-1.2A8.3,8.3,0,0,1,27,65.4Zm1.9,6.2a5.2,5.2,0,0,0-1.9-2,4.8,4.8,0,0,0-2.6-.7,5,5,0,0,0-4.5,2.7,5.6,5.6,0,0,0-.7,3,6.2,6.2,0,0,0,.7,3.1,5.5,5.5,0,0,0,1.9,2.1,5.9,5.9,0,0,0,2.6.7,5.9,5.9,0,0,0,2.6-.7,5.2,5.2,0,0,0,1.9-2,7.2,7.2,0,0,0,0-6.2Z"/><path class="cls-1" d="M44.4,58.3V84.5h-5V58.3Z"/><path class="cls-1" d="M60.2,84.5l-4.1-6.1-3.6,6.1H47.2l6.4-9.8-6.5-9.8h5.6l4,6,3.7-6h5.3l-6.5,9.8,6.6,9.8Z"/><path class="cls-1" d="M76.1,65.5a7.9,7.9,0,0,1,3.8-.9,8.4,8.4,0,0,1,7.8,4.7,11.5,11.5,0,0,1,1.2,5.3A11.9,11.9,0,0,1,87.7,80a10.2,10.2,0,0,1-3.2,3.6,9,9,0,0,1-4.6,1.2,9.2,9.2,0,0,1-3.8-.8,8.7,8.7,0,0,1-2.7-2.3V93.9H68.5v-29h4.9v2.8A7.5,7.5,0,0,1,76.1,65.5Zm7,6.1a4.6,4.6,0,0,0-1.9-2,4.8,4.8,0,0,0-2.6-.7,4.5,4.5,0,0,0-2.5.7,5.5,5.5,0,0,0-2,2,7.2,7.2,0,0,0,0,6.2,5.4,5.4,0,0,0,4.5,2.7,5.9,5.9,0,0,0,2.6-.7,5.5,5.5,0,0,0,1.9-2.1,5.9,5.9,0,0,0,.7-3.1A5.6,5.6,0,0,0,83.1,71.6Z"/><path class="cls-2" d="M45.9,26.1l7.5-4.4a2.2,2.2,0,0,1,2.2,0l7.5,4.4.3.2h.1l8.8,4.6V24.3a4.2,4.2,0,0,0-2-3.5l-5.4-3.1-.6-.4-13.8-8a4.1,4.1,0,0,0-4,0l-13.8,8a4,4,0,0,0-2,3.5V36.6a4,4,0,0,0,2,3.5l5.4,3.1.6.5,13.8,7.9a4.2,4.2,0,0,0,4,0l13.8-7.9a4.3,4.3,0,0,0,2-3.5V33l-6-3.1h0l-8.1-4.7V33a2.4,2.4,0,0,1-1.1,1.9l-7.5,4.3a2.2,2.2,0,0,1-2.2,0l-1.9-1.1a2.1,2.1,0,0,1-.7-1.5V27.9A2.1,2.1,0,0,1,45.9,26.1ZM44.3,39.6l.7.5,7.5,4.3.3.2-3.2,1.8a2.2,2.2,0,0,1-2.2,0l-8.2-4.7a2.8,2.8,0,0,1-.6-1.5V36.3a.5.5,0,0,0,.4.2ZM54.5,14.2a2.3,2.3,0,0,1,1.1.3l8.2,4.8a2.3,2.3,0,0,1,.6,1.5v3.4l-5.9-3-.5-.3-7.5-4.4h-.3l3.2-1.9A2.3,2.3,0,0,1,54.5,14.2ZM70.4,24.3v3.5l-4.1-2.1V20.8h0l3,1.8A1.9,1.9,0,0,1,70.4,24.3ZM32.6,36.6V20.8a2.1,2.1,0,0,1,1.1-1.9L47.4,11a2.2,2.2,0,0,1,2.2,0l3.1,1.8h-.2L38.7,20.8a4.2,4.2,0,0,0-2,3.5V40.2h0l-3-1.7A2.1,2.1,0,0,1,32.6,36.6Zm37.8-2.4v6A2.1,2.1,0,0,1,69.3,42L55.6,50a2.8,2.8,0,0,1-2.2,0l-3.1-1.8h.2l13.8-8a4,4,0,0,0,2-3.5V32ZM58,36.5A3.9,3.9,0,0,0,60.1,33V28.4l4,2.3v5.9a2.2,2.2,0,0,1-1,1.8l-7.5,4.4a2.8,2.8,0,0,1-2.2,0L50.3,41h.2ZM42.9,27.9v8.7h0l-3-1.7a2.3,2.3,0,0,1-1-1.9V24.4a2.3,2.3,0,0,1,1-1.9l7.5-4.3a2.2,2.2,0,0,1,2.2,0L52.7,20c-.1,0-.2,0-.2.1L45,24.4A4,4,0,0,0,42.9,27.9Z"/><rect class="cls-3" width="103" height="103"/></g></g></svg>