<svg xmlns="http://www.w3.org/2000/svg" viewBox="0 0 74.8 35.9"><defs><style>.cls-1{fill:#073020;}</style></defs><g id="Layer_2" data-name="Layer 2"><g id="Layer_1-2" data-name="Layer 1"><path class="cls-1" d="M12.8,7.1a8.7,8.7,0,0,1,2.7,2.3V6.6h5V26.4a11.4,11.4,0,0,1-1.1,4.9,9.8,9.8,0,0,1-3.3,3.4,11.3,11.3,0,0,1-5.4,1.2A11.4,11.4,0,0,1,3.9,34a7.1,7.1,0,0,1-3-5.3H5.8a3.2,3.2,0,0,0,1.7,2.1,5.9,5.9,0,0,0,3.1.8,4.8,4.8,0,0,0,3.5-1.3,5.3,5.3,0,0,0,1.4-3.9V23.3a7.5,7.5,0,0,1-2.7,2.3,7,7,0,0,1-3.8,1,9.1,9.1,0,0,1-4.6-1.3,10.2,10.2,0,0,1-3.2-3.6A11.6,11.6,0,0,1,0,16.3a11.1,11.1,0,0,1,1.2-5.2A8.7,8.7,0,0,1,4.4,7.5,9,9,0,0,1,9,6.3,9.2,9.2,0,0,1,12.8,7.1Zm2,6.2a6.4,6.4,0,0,0-2-2,5.6,5.6,0,0,0-2.6-.7,5.5,5.5,0,0,0-2.5.7,5.2,5.2,0,0,0-1.9,2,5.8,5.8,0,0,0-.7,3,6.6,6.6,0,0,0,.7,3.2,6.1,6.1,0,0,0,1.9,2,4.7,4.7,0,0,0,2.5.7,4.6,4.6,0,0,0,2.6-.7,5.5,5.5,0,0,0,2-2,7.1,7.1,0,0,0,.7-3.1A7.4,7.4,0,0,0,14.8,13.3Z"/><path class="cls-1" d="M30.3,0V26.2h-5V0Z"/><path class="cls-1" d="M46,26.2l-4-6.1-3.6,6.1H33.1l6.4-9.8L33,6.6h5.6l4,6.1,3.6-6.1h5.4l-6.5,9.8,6.5,9.8Z"/><path class="cls-1" d="M61.9,7.2a8.3,8.3,0,0,1,3.9-.9,8.4,8.4,0,0,1,4.5,1.2A8.6,8.6,0,0,1,73.6,11a11.5,11.5,0,0,1,1.2,5.3,11.6,11.6,0,0,1-1.2,5.4,9.5,9.5,0,0,1-3.3,3.6,8.5,8.5,0,0,1-4.5,1.3,7.6,7.6,0,0,1-3.8-.9,8.7,8.7,0,0,1-2.7-2.3V35.6h-5V6.6h5V9.4A7.1,7.1,0,0,1,61.9,7.2ZM69,13.3a5.5,5.5,0,0,0-2-2,5.2,5.2,0,0,0-2.5-.7,5.9,5.9,0,0,0-2.6.7,6.1,6.1,0,0,0-1.9,2,6.2,6.2,0,0,0-.7,3.1,6.2,6.2,0,0,0,.7,3.1,5.2,5.2,0,0,0,1.9,2,4.8,4.8,0,0,0,2.6.7,4.3,4.3,0,0,0,2.5-.7,6.4,6.4,0,0,0,2-2,7.6,7.6,0,0,0,.7-3.2A7,7,0,0,0,69,13.3Z"/></g></g></svg>